<?xml version="1.0" encoding="UTF-8"?>
<svg id="Layer_1" xmlns="http://www.w3.org/2000/svg" version="1.1" viewBox="0 0 500 500">
  <!-- Generator: Adobe Illustrator 30.2.1, SVG Export Plug-In . SVG Version: 2.1.1 Build 1)  -->
  <path d="M448.88,424.38c2.21,10.56-6.22,27.34-17.58,25.03l-95.17-19.33c-89.06,42.09-191.85,14.32-248.48-63.7-56.81-78.27-48.81-187.2,20.39-256.91,67.06-67.54,175.25-79.57,255.01-23.97,78.7,54.86,111.2,158.8,67.12,249.44l18.7,89.43ZM431.59,430.74l-20.62-96.71c42.99-82.19,16.68-179.94-55.34-231.56-72.54-51.99-169.9-43.2-232.51,17.53-65.13,63.16-72.86,164.54-20.57,236.09,52.89,72.39,149.06,96.92,231.01,55.32l98.03,19.34Z"/>
</svg>