<?xml version="1.0" encoding="UTF-8"?>
<svg id="Layer_1" xmlns="http://www.w3.org/2000/svg" version="1.1" viewBox="0 0 500 500">
  <!-- Generator: Adobe Illustrator 30.2.1, SVG Export Plug-In . SVG Version: 2.1.1 Build 1)  -->
  <path d="M410.9,407.1c-17.94,10.04.73,41.13-15.08,58.06-4.97,5.32-19.75,10.48-28.73,10.47l-289.99-.37c-14.49-.02-26.79-16.34-26.81-29.77l-.17-182.18c-.02-19.71,10.57-35.06,32.02-35.33l60.5-.75c23.54-29.96,50.25-56.74,64.15-91.89,13.45-34.03-8.57-92.64,11.03-105.88,5.55-3.75,21.55-5.27,29.1-2.9,25.56,8.03,43.9,35.26,44.79,62.94l3.18,98.86,117.64,2.6c9.04.2,28.51,16.32,28.01,24.86l-2.86,48.75c-.62,10.61,15.03,29.21,12.07,42.51-2.45,11.01-13.75,24.36-25.39,35.75,13.32,22.06,11.48,50.31-13.47,64.27ZM401.48,335.98l11.98-10.86c5.79-5.25,15.92-16.35,15.91-23.31,0-6.96-7.42-18.86-12.61-27.6-9.43-15.85,14.27-40.83,3.21-56.18-3.52-4.88-17.17-10.01-24.33-10.09l-122.14-1.29c-5.19-39.86,20.28-167.3-45.39-160.61,11.58,113.48-10.22,116.98-76.4,201.03l-.29,208.2,222.33.22c7.69,0,10.71-22.22,8.11-29.01-1.78-7.94-5.39-18.85-1.52-21.47l14.53-9.8c6.23-4.2,15.05-11.33,17.28-16.78,5.58-13.64-16.06-37.56-10.69-42.43ZM131.54,454.82l-.25-205.44c-21.91-1.29-41.12-1.22-61.88.42l.89,204.82,61.24.2Z"/>
</svg>