<?xml version="1.0" encoding="UTF-8"?>
<svg id="Layer_1" xmlns="http://www.w3.org/2000/svg" version="1.1" viewBox="0 0 24 24">
  <!-- Generator: Adobe Illustrator 30.2.1, SVG Export Plug-In . SVG Version: 2.1.1 Build 1)  -->
  <defs>
    <style>
      .st0 {
        fill: #fff;
      }
    </style>
  </defs>
  <path class="st0" d="M5.58,8.19c-.46-.31-1.08-.19-1.39.26-.3.44-.2,1.05.23,1.37l3.56,2.54c.8.57,1.47,1.05,2.06,1.38.62.35,1.25.58,1.96.58s1.33-.23,1.96-.58c.59-.33,1.26-.81,2.06-1.38l3.56-2.54c.45-.32.55-.95.23-1.4-.32-.45-.95-.55-1.4-.23l-3.51,2.51c-.86.61-1.44,1.02-1.92,1.29-.46.25-.74.32-.99.32s-.53-.07-.99-.32c-.48-.27-1.06-.68-1.92-1.29l-3.51-2.51h0Z"/>
  <path class="st0" d="M14.57,3h-5.15c-1.82,0-3.29,0-4.45.15-1.2.16-2.21.51-3.01,1.31-.8.8-1.15,1.81-1.31,3.01-.15,1.16-.15,2.63-.15,4.45v.15c0,1.82,0,3.29.15,4.45.16,1.2.51,2.21,1.31,3.01.8.8,1.81,1.15,3.01,1.31,1.16.16,2.63.16,4.45.16h5.15c1.82,0,3.29,0,4.45-.16,1.2-.16,2.21-.51,3.01-1.31.8-.8,1.15-1.81,1.31-3.01.16-1.16.16-2.62.16-4.45v-.15c0-1.82,0-3.29-.16-4.45-.16-1.2-.51-2.21-1.31-3.01-.8-.8-1.81-1.15-3.01-1.31-1.16-.16-2.62-.16-4.45-.16ZM3.38,5.88c.37-.37.89-.61,1.86-.74,1.01-.14,2.34-.14,4.26-.14h5c1.91,0,3.25,0,4.26.14.98.13,1.5.37,1.86.74.37.37.61.89.74,1.87.14,1.01.14,2.34.14,4.26s0,3.25-.14,4.26c-.13.98-.37,1.5-.74,1.86-.37.37-.89.61-1.86.74-1.01.14-2.34.14-4.26.14h-5c-1.91,0-3.25,0-4.26-.14-.98-.13-1.5-.37-1.87-.74-.37-.37-.61-.89-.74-1.86-.14-1.01-.14-2.34-.14-4.26s0-3.25.14-4.26c.13-.98.37-1.5.74-1.87h0Z"/>
</svg>