<?xml version="1.0" encoding="UTF-8"?>
<svg id="Layer_1" xmlns="http://www.w3.org/2000/svg" version="1.1" viewBox="0 0 500 500">
  <!-- Generator: Adobe Illustrator 30.2.1, SVG Export Plug-In . SVG Version: 2.1.1 Build 1)  -->
  <path d="M264.61,318.04c-72.33-5.43-144.44,28.69-199.74,69.93-30.7,22.89-11.45-59.62,35.87-114.31,42.89-49.57,99.52-77.75,164.25-90.26l.55-61.79c.04-4.73,7.19-14,11.44-15.8,4.86-2.06,15.66.05,20.65,4.35l146.98,126.74c7.48,6.45,7.16,20.5-.91,27.43l-149.94,128.84c-3.62,3.11-17.15,1.91-20.71-.86-3.56-2.77-7.39-10.38-7.47-15.38l-.98-58.89ZM279.23,303.98c.2,29.55-.5,51.37,2.87,80.55l156.52-134.14-157.15-134.8-2.45,79.38c-97.05,15.33-186.53,71.87-213,174.63,63.94-44.07,135.45-72.36,213.2-65.61Z"/>
</svg>